<mxfile host="65bd71144e" scale="7" border="0">
    <diagram id="Wim57JG-ISkYiDhrB5ls" name="NETWORK">
        <mxGraphModel dx="1002" dy="568" grid="1" gridSize="10" guides="1" tooltips="1" connect="1" arrows="1" fold="1" page="1" pageScale="1" pageWidth="827" pageHeight="583" math="0" shadow="0">
            <root>
                <mxCell id="0"/>
                <mxCell id="1" parent="0"/>
                <mxCell id="i6ID7cwx9-aetkKkSIl2-1" value="" style="rounded=0;whiteSpace=wrap;html=1;" vertex="1" parent="1">
                    <mxGeometry x="20" y="60" width="740" height="440" as="geometry"/>
                </mxCell>
                <mxCell id="Zs9Ae-MOk7DnlnF8oPoA-3" value="" style="edgeStyle=none;html=1;" edge="1" parent="1" source="Zs9Ae-MOk7DnlnF8oPoA-1" target="Zs9Ae-MOk7DnlnF8oPoA-2">
                    <mxGeometry relative="1" as="geometry"/>
                </mxCell>
                <mxCell id="Zs9Ae-MOk7DnlnF8oPoA-5" value="" style="edgeStyle=none;html=1;" edge="1" parent="1" source="Zs9Ae-MOk7DnlnF8oPoA-1" target="Zs9Ae-MOk7DnlnF8oPoA-4">
                    <mxGeometry relative="1" as="geometry"/>
                </mxCell>
                <mxCell id="Zs9Ae-MOk7DnlnF8oPoA-7" value="" style="edgeStyle=none;html=1;" edge="1" parent="1" source="Zs9Ae-MOk7DnlnF8oPoA-1" target="Zs9Ae-MOk7DnlnF8oPoA-6">
                    <mxGeometry relative="1" as="geometry"/>
                </mxCell>
                <mxCell id="Zs9Ae-MOk7DnlnF8oPoA-9" value="" style="edgeStyle=none;html=1;" edge="1" parent="1" source="Zs9Ae-MOk7DnlnF8oPoA-1" target="Zs9Ae-MOk7DnlnF8oPoA-8">
                    <mxGeometry relative="1" as="geometry"/>
                </mxCell>
                <mxCell id="Zs9Ae-MOk7DnlnF8oPoA-10" value="" style="edgeStyle=none;html=1;" edge="1" parent="1" source="Zs9Ae-MOk7DnlnF8oPoA-1" target="Zs9Ae-MOk7DnlnF8oPoA-8">
                    <mxGeometry relative="1" as="geometry"/>
                </mxCell>
                <mxCell id="Zs9Ae-MOk7DnlnF8oPoA-11" value="" style="edgeStyle=none;html=1;" edge="1" parent="1" source="Zs9Ae-MOk7DnlnF8oPoA-1" target="Zs9Ae-MOk7DnlnF8oPoA-8">
                    <mxGeometry relative="1" as="geometry"/>
                </mxCell>
                <mxCell id="Zs9Ae-MOk7DnlnF8oPoA-12" value="" style="edgeStyle=none;html=1;" edge="1" parent="1" source="Zs9Ae-MOk7DnlnF8oPoA-1" target="Zs9Ae-MOk7DnlnF8oPoA-8">
                    <mxGeometry relative="1" as="geometry"/>
                </mxCell>
                <mxCell id="Zs9Ae-MOk7DnlnF8oPoA-14" style="edgeStyle=none;html=1;exitX=0.75;exitY=1;exitDx=0;exitDy=0;entryX=0.5;entryY=0;entryDx=0;entryDy=0;" edge="1" parent="1" source="Zs9Ae-MOk7DnlnF8oPoA-1" target="Zs9Ae-MOk7DnlnF8oPoA-13">
                    <mxGeometry relative="1" as="geometry"/>
                </mxCell>
                <mxCell id="Zs9Ae-MOk7DnlnF8oPoA-1" value="NETWORK" style="rounded=0;whiteSpace=wrap;html=1;fillColor=#6a00ff;fontColor=#ffffff;strokeColor=#3700CC;" vertex="1" parent="1">
                    <mxGeometry x="320" y="220" width="120" height="60" as="geometry"/>
                </mxCell>
                <mxCell id="Zs9Ae-MOk7DnlnF8oPoA-2" value="&lt;b&gt;NETWORK_SearchServer()&lt;/b&gt;&lt;br&gt;Tìm kiếm các máy chủ dựa trên tên miền domain" style="whiteSpace=wrap;html=1;rounded=0;" vertex="1" parent="1">
                    <mxGeometry x="265" y="80" width="230" height="60" as="geometry"/>
                </mxCell>
                <mxCell id="Zs9Ae-MOk7DnlnF8oPoA-4" value="&lt;b&gt;NETWORK_Open()&lt;/b&gt;&lt;br&gt;Mở kết nối giữa client tới server được chỉ định bởi domain" style="whiteSpace=wrap;html=1;rounded=0;" vertex="1" parent="1">
                    <mxGeometry x="520" y="220" width="160" height="60" as="geometry"/>
                </mxCell>
                <mxCell id="Zs9Ae-MOk7DnlnF8oPoA-6" value="&lt;b&gt;NETWORK_Connect()/Close()&lt;/b&gt;&lt;br&gt;Tạo/Ngắt kết nối giữa client và server" style="whiteSpace=wrap;html=1;rounded=0;" vertex="1" parent="1">
                    <mxGeometry x="40" y="220" width="200" height="60" as="geometry"/>
                </mxCell>
                <mxCell id="Zs9Ae-MOk7DnlnF8oPoA-8" value="&lt;b&gt;NETWORK_ExchangeData()&lt;/b&gt;&lt;br&gt;Gửi request của client sang cho server, đợi server xử lý và truyền lại response về cho client" style="whiteSpace=wrap;html=1;rounded=0;" vertex="1" parent="1">
                    <mxGeometry x="130" y="370" width="190" height="60" as="geometry"/>
                </mxCell>
                <mxCell id="Zs9Ae-MOk7DnlnF8oPoA-13" value="network_t&lt;br&gt;&lt;ul&gt;&lt;li&gt;p_server: kết nối tới máy chủ&lt;br&gt;&lt;/li&gt;&lt;li&gt;p_client: kết nối tới máy khách client&lt;/li&gt;&lt;li&gt;network_stream: đường truyền dữ liệu giữa client và server&lt;/li&gt;&lt;/ul&gt;" style="whiteSpace=wrap;html=1;rounded=0;align=left;fillColor=#d80073;fontColor=#ffffff;strokeColor=#A50040;" vertex="1" parent="1">
                    <mxGeometry x="450" y="360" width="290" height="120" as="geometry"/>
                </mxCell>
            </root>
        </mxGraphModel>
    </diagram>
    <diagram id="1_3eZMn86_ZuR9DbrEu8" name="SERVER">
        <mxGraphModel dx="1542" dy="874" grid="1" gridSize="10" guides="1" tooltips="1" connect="1" arrows="1" fold="1" page="1" pageScale="1" pageWidth="827" pageHeight="583" math="0" shadow="0">
            <root>
                <mxCell id="0"/>
                <mxCell id="1" parent="0"/>
                <mxCell id="ZeQtb05C6iEbiggFozgw-2" value="" style="rounded=0;whiteSpace=wrap;html=1;" vertex="1" parent="1">
                    <mxGeometry x="50" y="80" width="730" height="650" as="geometry"/>
                </mxCell>
                <mxCell id="b0SE_7tG9ITqdDnaIRRO-3" value="" style="edgeStyle=none;html=1;" edge="1" parent="1" source="b0SE_7tG9ITqdDnaIRRO-1" target="b0SE_7tG9ITqdDnaIRRO-2">
                    <mxGeometry relative="1" as="geometry"/>
                </mxCell>
                <mxCell id="b0SE_7tG9ITqdDnaIRRO-5" value="" style="edgeStyle=none;html=1;" edge="1" parent="1" source="b0SE_7tG9ITqdDnaIRRO-1" target="b0SE_7tG9ITqdDnaIRRO-4">
                    <mxGeometry relative="1" as="geometry"/>
                </mxCell>
                <mxCell id="b0SE_7tG9ITqdDnaIRRO-7" value="" style="edgeStyle=none;html=1;" edge="1" parent="1" source="b0SE_7tG9ITqdDnaIRRO-1" target="b0SE_7tG9ITqdDnaIRRO-6">
                    <mxGeometry relative="1" as="geometry"/>
                </mxCell>
                <mxCell id="b0SE_7tG9ITqdDnaIRRO-9" value="" style="edgeStyle=none;html=1;" edge="1" parent="1" source="b0SE_7tG9ITqdDnaIRRO-1" target="b0SE_7tG9ITqdDnaIRRO-8">
                    <mxGeometry relative="1" as="geometry"/>
                </mxCell>
                <mxCell id="b0SE_7tG9ITqdDnaIRRO-1" value="SERVER" style="rounded=0;whiteSpace=wrap;html=1;fillColor=#6a00ff;fontColor=#ffffff;strokeColor=#3700CC;" vertex="1" parent="1">
                    <mxGeometry x="350" y="260" width="120" height="60" as="geometry"/>
                </mxCell>
                <mxCell id="b0SE_7tG9ITqdDnaIRRO-2" value="&lt;b&gt;SERVER_GetServerList()&lt;/b&gt;&lt;br&gt;Lấy danh sách các máy chủ" style="whiteSpace=wrap;html=1;rounded=0;" vertex="1" parent="1">
                    <mxGeometry x="325" y="120" width="170" height="60" as="geometry"/>
                </mxCell>
                <mxCell id="b0SE_7tG9ITqdDnaIRRO-4" value="&lt;b&gt;SERVER_GetServerListSize()&lt;/b&gt;&lt;br&gt;Lấy số lượng máy chủ hiện có" style="whiteSpace=wrap;html=1;rounded=0;" vertex="1" parent="1">
                    <mxGeometry x="550" y="260" width="200" height="60" as="geometry"/>
                </mxCell>
                <mxCell id="b0SE_7tG9ITqdDnaIRRO-6" value="&lt;b&gt;SERVER_HandleRequest()&lt;/b&gt;&lt;br&gt;Xử lý yêu cầu request và trả về phản hồi response" style="whiteSpace=wrap;html=1;rounded=0;" vertex="1" parent="1">
                    <mxGeometry x="90" y="260" width="180" height="60" as="geometry"/>
                </mxCell>
                <mxCell id="b0SE_7tG9ITqdDnaIRRO-12" style="edgeStyle=none;html=1;exitX=0.5;exitY=1;exitDx=0;exitDy=0;entryX=0.5;entryY=0;entryDx=0;entryDy=0;" edge="1" parent="1" source="b0SE_7tG9ITqdDnaIRRO-8" target="b0SE_7tG9ITqdDnaIRRO-10">
                    <mxGeometry relative="1" as="geometry"/>
                </mxCell>
                <mxCell id="b0SE_7tG9ITqdDnaIRRO-8" value="server_t&lt;br&gt;&lt;ul&gt;&lt;li&gt;domain_name: tên máy chủ&lt;/li&gt;&lt;li&gt;network_stream: dữ liệu (chỉ đọc) từ client gửi tới&lt;/li&gt;&lt;li&gt;network_id: id kết nối giữa client với máy chủ&lt;/li&gt;&lt;li&gt;handler[10]: Một máy chủ được trang bị tối đa 10 phương thức xử lý khác nhau&lt;/li&gt;&lt;/ul&gt;" style="whiteSpace=wrap;html=1;rounded=0;align=left;fillColor=#d80073;fontColor=#ffffff;strokeColor=#A50040;" vertex="1" parent="1">
                    <mxGeometry x="230" y="400" width="360" height="130" as="geometry"/>
                </mxCell>
                <mxCell id="b0SE_7tG9ITqdDnaIRRO-11" style="edgeStyle=none;html=1;" edge="1" parent="1" source="b0SE_7tG9ITqdDnaIRRO-10">
                    <mxGeometry relative="1" as="geometry">
                        <mxPoint x="540.0000000000002" y="640" as="targetPoint"/>
                    </mxGeometry>
                </mxCell>
                <mxCell id="b0SE_7tG9ITqdDnaIRRO-10" value="server_request_handler_t:&lt;br&gt;&lt;ul&gt;&lt;li&gt;command: tên phương thức xử lý&lt;/li&gt;&lt;li&gt;standard_calculation_handle(): Phương thức xử lý cho standard calculation&lt;br&gt;&lt;/li&gt;&lt;/ul&gt;" style="rounded=0;whiteSpace=wrap;html=1;align=left;fillColor=#d80073;fontColor=#ffffff;strokeColor=#A50040;" vertex="1" parent="1">
                    <mxGeometry x="230" y="580" width="360" height="120" as="geometry"/>
                </mxCell>
            </root>
        </mxGraphModel>
    </diagram>
    <diagram id="Kljlrr_9UNmjUdZc3_JI" name="CLIENT">
        <mxGraphModel dx="1179" dy="668" grid="1" gridSize="10" guides="1" tooltips="1" connect="1" arrows="1" fold="1" page="1" pageScale="1" pageWidth="827" pageHeight="583" math="0" shadow="0">
            <root>
                <mxCell id="0"/>
                <mxCell id="1" parent="0"/>
                <mxCell id="lecY73yTypE7zZxhLCA3-1" value="" style="rounded=0;whiteSpace=wrap;html=1;" vertex="1" parent="1">
                    <mxGeometry x="35" y="80" width="730" height="460" as="geometry"/>
                </mxCell>
                <mxCell id="jpyVpa6djTAMGbkz-SgO-3" value="" style="edgeStyle=none;html=1;" edge="1" parent="1" source="jpyVpa6djTAMGbkz-SgO-1" target="jpyVpa6djTAMGbkz-SgO-2">
                    <mxGeometry relative="1" as="geometry"/>
                </mxCell>
                <mxCell id="jpyVpa6djTAMGbkz-SgO-5" value="" style="edgeStyle=none;html=1;" edge="1" parent="1" source="jpyVpa6djTAMGbkz-SgO-1" target="jpyVpa6djTAMGbkz-SgO-4">
                    <mxGeometry relative="1" as="geometry"/>
                </mxCell>
                <mxCell id="jpyVpa6djTAMGbkz-SgO-7" value="" style="edgeStyle=none;html=1;" edge="1" parent="1" source="jpyVpa6djTAMGbkz-SgO-1" target="jpyVpa6djTAMGbkz-SgO-6">
                    <mxGeometry relative="1" as="geometry"/>
                </mxCell>
                <mxCell id="jpyVpa6djTAMGbkz-SgO-9" value="" style="edgeStyle=none;html=1;" edge="1" parent="1" source="jpyVpa6djTAMGbkz-SgO-1" target="jpyVpa6djTAMGbkz-SgO-8">
                    <mxGeometry relative="1" as="geometry"/>
                </mxCell>
                <mxCell id="jpyVpa6djTAMGbkz-SgO-1" value="CLIENT" style="rounded=0;whiteSpace=wrap;html=1;fillColor=#6a00ff;fontColor=#ffffff;strokeColor=#3700CC;" vertex="1" parent="1">
                    <mxGeometry x="340" y="250" width="120" height="60" as="geometry"/>
                </mxCell>
                <mxCell id="jpyVpa6djTAMGbkz-SgO-2" value="&lt;b&gt;CLIENT_OpenNetwork()&lt;/b&gt;&lt;br&gt;Mở kết nối đến máy chủ qua tên miền domain" style="whiteSpace=wrap;html=1;rounded=0;" vertex="1" parent="1">
                    <mxGeometry x="315" y="110" width="170" height="60" as="geometry"/>
                </mxCell>
                <mxCell id="jpyVpa6djTAMGbkz-SgO-4" value="&lt;b&gt;CLIENT_CloseNetwork()&lt;/b&gt;&lt;br&gt;Đóng kết nối tới máy chủ" style="whiteSpace=wrap;html=1;rounded=0;" vertex="1" parent="1">
                    <mxGeometry x="540" y="250" width="200" height="60" as="geometry"/>
                </mxCell>
                <mxCell id="jpyVpa6djTAMGbkz-SgO-6" value="&lt;b&gt;CLIENT_Request()&lt;/b&gt;&lt;br&gt;Gửi request dạng chuỗi (file .json) đến máy chủ và nhận phản hồi là file .json" style="whiteSpace=wrap;html=1;rounded=0;" vertex="1" parent="1">
                    <mxGeometry x="70" y="250" width="200" height="60" as="geometry"/>
                </mxCell>
                <mxCell id="jpyVpa6djTAMGbkz-SgO-8" value="client_t&lt;br&gt;&lt;ul&gt;&lt;li&gt;network_id: id của kết nối tới máy chủ&lt;/li&gt;&lt;li&gt;network_stream: dữ liệu (chỉ đọc) từ máy chủ gửi về&lt;/li&gt;&lt;/ul&gt;" style="whiteSpace=wrap;html=1;rounded=0;align=left;fillColor=#d80073;fontColor=#ffffff;strokeColor=#A50040;" vertex="1" parent="1">
                    <mxGeometry x="240" y="390" width="320" height="120" as="geometry"/>
                </mxCell>
            </root>
        </mxGraphModel>
    </diagram>
    <diagram id="x37JzcuJYdzOXfNyurD-" name="CUI">
        <mxGraphModel dx="1160" dy="1136" grid="1" gridSize="10" guides="1" tooltips="1" connect="1" arrows="1" fold="1" page="1" pageScale="1" pageWidth="827" pageHeight="583" math="0" shadow="0">
            <root>
                <mxCell id="0"/>
                <mxCell id="1" parent="0"/>
                <mxCell id="2uZ-i_zXCgiIeTVTuBMa-1" value="" style="rounded=0;whiteSpace=wrap;html=1;" parent="1" vertex="1">
                    <mxGeometry x="254" y="550" width="320" height="240" as="geometry"/>
                </mxCell>
                <mxCell id="z_QGt2Ix7eNq_pdkZe2o-1" value="" style="rounded=0;whiteSpace=wrap;html=1;" parent="1" vertex="1">
                    <mxGeometry y="110" width="830" height="400" as="geometry"/>
                </mxCell>
                <mxCell id="RhwdSpHODHkdPpX2-O0S-3" value="" style="edgeStyle=elbowEdgeStyle;html=1;" parent="1" source="RhwdSpHODHkdPpX2-O0S-1" target="RhwdSpHODHkdPpX2-O0S-2" edge="1">
                    <mxGeometry relative="1" as="geometry"/>
                </mxCell>
                <mxCell id="RhwdSpHODHkdPpX2-O0S-5" value="" style="edgeStyle=elbowEdgeStyle;html=1;" parent="1" source="RhwdSpHODHkdPpX2-O0S-1" target="RhwdSpHODHkdPpX2-O0S-4" edge="1">
                    <mxGeometry relative="1" as="geometry"/>
                </mxCell>
                <mxCell id="RhwdSpHODHkdPpX2-O0S-7" value="" style="edgeStyle=elbowEdgeStyle;html=1;" parent="1" source="RhwdSpHODHkdPpX2-O0S-1" target="RhwdSpHODHkdPpX2-O0S-6" edge="1">
                    <mxGeometry relative="1" as="geometry"/>
                </mxCell>
                <mxCell id="RhwdSpHODHkdPpX2-O0S-12" value="" style="edgeStyle=elbowEdgeStyle;html=1;" parent="1" source="RhwdSpHODHkdPpX2-O0S-1" target="RhwdSpHODHkdPpX2-O0S-11" edge="1">
                    <mxGeometry relative="1" as="geometry"/>
                </mxCell>
                <mxCell id="RhwdSpHODHkdPpX2-O0S-1" value="CUI" style="rounded=0;whiteSpace=wrap;html=1;fillColor=#6a00ff;fontColor=#ffffff;strokeColor=#3700CC;" parent="1" vertex="1">
                    <mxGeometry x="444" y="280" width="120" height="60" as="geometry"/>
                </mxCell>
                <mxCell id="RhwdSpHODHkdPpX2-O0S-2" value="Data_Get()/Data_Set()&lt;br&gt;&lt;span style=&quot;font-weight: normal;&quot;&gt;Lấy giá trị/Gán giá trị hiển thị lên giao diện Console&lt;/span&gt;" style="whiteSpace=wrap;html=1;rounded=0;fontStyle=1" parent="1" vertex="1">
                    <mxGeometry x="429" y="140" width="150" height="60" as="geometry"/>
                </mxCell>
                <mxCell id="RhwdSpHODHkdPpX2-O0S-4" value="&lt;b&gt;/* Window Management Function - &lt;/b&gt;Hàm quản lý giao diện&lt;b&gt;*/&lt;br&gt;Launch()&lt;/b&gt;&lt;br&gt;Hiển thị giao diện, bao gồm 3 bước:&lt;br&gt;&lt;ol&gt;&lt;li&gt;&lt;span style=&quot;background-color: initial;&quot;&gt;&lt;b&gt;DisplayMenu&lt;/b&gt;: Hiển thị Menu&lt;/span&gt;&lt;/li&gt;&lt;li&gt;&lt;span style=&quot;background-color: initial;&quot;&gt;&lt;b&gt;GetInputFromUser&lt;/b&gt;: Nhận đầu vào từ người dùng&lt;/span&gt;&lt;/li&gt;&lt;li&gt;&lt;span style=&quot;background-color: initial;&quot;&gt;&lt;b&gt;HandleUserInput&lt;/b&gt;: Hiển thị giao diện dựa trên đầu vào từ người dùng&amp;nbsp;&lt;/span&gt;&lt;/li&gt;&lt;/ol&gt;" style="whiteSpace=wrap;html=1;rounded=0;align=left;" parent="1" vertex="1">
                    <mxGeometry x="34" y="235" width="370" height="150" as="geometry"/>
                </mxCell>
                <mxCell id="RhwdSpHODHkdPpX2-O0S-6" value="&lt;b&gt;/* HelperFunction */&lt;/b&gt;&lt;br&gt;Là những hàm hỗ trợ trong quá trình hiển thị giao diện" style="whiteSpace=wrap;html=1;rounded=0;" parent="1" vertex="1">
                    <mxGeometry x="614" y="280" width="180" height="60" as="geometry"/>
                </mxCell>
                <mxCell id="RhwdSpHODHkdPpX2-O0S-10" value="" style="edgeStyle=elbowEdgeStyle;html=1;" parent="1" source="RhwdSpHODHkdPpX2-O0S-8" target="RhwdSpHODHkdPpX2-O0S-9" edge="1">
                    <mxGeometry relative="1" as="geometry"/>
                </mxCell>
                <mxCell id="RhwdSpHODHkdPpX2-O0S-8" value="CUI_INPUT_VALIDATION" style="rounded=0;whiteSpace=wrap;html=1;fillColor=#6a00ff;fontColor=#ffffff;strokeColor=#3700CC;" parent="1" vertex="1">
                    <mxGeometry x="334" y="580" width="160" height="60" as="geometry"/>
                </mxCell>
                <mxCell id="RhwdSpHODHkdPpX2-O0S-9" value="&lt;b&gt;Get&amp;lt;Something&amp;gt;FromUser()&lt;/b&gt;&lt;br&gt;Hàm yêu cầu người dùng nhập đầu vào và đảm bảo đầu vào của người dùng phải hợp lệ" style="whiteSpace=wrap;html=1;rounded=0;" parent="1" vertex="1">
                    <mxGeometry x="284" y="700" width="260" height="60" as="geometry"/>
                </mxCell>
                <mxCell id="RhwdSpHODHkdPpX2-O0S-11" value="&lt;b&gt;window_data_t&lt;/b&gt;&lt;br&gt;Lưu trữ những thông tin trên giao diện đang hiển thị" style="whiteSpace=wrap;html=1;rounded=0;fillColor=#d80073;fontColor=#ffffff;strokeColor=#A50040;" parent="1" vertex="1">
                    <mxGeometry x="414" y="420" width="180" height="60" as="geometry"/>
                </mxCell>
            </root>
        </mxGraphModel>
    </diagram>
    <diagram id="IGHGgmHnf8CLtNe1GRuo" name="BACKEND">
        <mxGraphModel dx="832" dy="568" grid="1" gridSize="10" guides="1" tooltips="1" connect="1" arrows="1" fold="1" page="1" pageScale="1" pageWidth="827" pageHeight="583" math="0" shadow="0">
            <root>
                <mxCell id="0"/>
                <mxCell id="1" parent="0"/>
                <mxCell id="0JNxs9eKW-insCY7qriW-1" value="" style="rounded=0;whiteSpace=wrap;html=1;" parent="1" vertex="1">
                    <mxGeometry x="320" y="90" width="180" height="400" as="geometry"/>
                </mxCell>
                <mxCell id="zgFi462bRT3ZiPqS2_40-3" value="" style="edgeStyle=elbowEdgeStyle;html=1;" parent="1" source="zgFi462bRT3ZiPqS2_40-1" target="zgFi462bRT3ZiPqS2_40-2" edge="1">
                    <mxGeometry relative="1" as="geometry"/>
                </mxCell>
                <mxCell id="zgFi462bRT3ZiPqS2_40-5" value="" style="edgeStyle=elbowEdgeStyle;html=1;" parent="1" source="zgFi462bRT3ZiPqS2_40-1" target="zgFi462bRT3ZiPqS2_40-4" edge="1">
                    <mxGeometry relative="1" as="geometry"/>
                </mxCell>
                <mxCell id="zgFi462bRT3ZiPqS2_40-1" value="BACKEND" style="rounded=0;whiteSpace=wrap;html=1;fillColor=#6a00ff;fontColor=#ffffff;strokeColor=#3700CC;" parent="1" vertex="1">
                    <mxGeometry x="350" y="260" width="120" height="60" as="geometry"/>
                </mxCell>
                <mxCell id="zgFi462bRT3ZiPqS2_40-2" value="&lt;b&gt;data_t&lt;/b&gt;&lt;br&gt;Lưu trữ dữ liệu nội bộ cho backend" style="whiteSpace=wrap;html=1;rounded=0;fillColor=#d80073;fontColor=#ffffff;strokeColor=#A50040;" parent="1" vertex="1">
                    <mxGeometry x="350" y="120" width="120" height="60" as="geometry"/>
                </mxCell>
                <mxCell id="zgFi462bRT3ZiPqS2_40-4" value="&lt;b&gt;Get()/Set()/Update()&lt;/b&gt;&lt;br&gt;Lấy giá trị/Gán giá trị/Cập nhật giá trị cho dữ liệu trong backend" style="whiteSpace=wrap;html=1;rounded=0;" parent="1" vertex="1">
                    <mxGeometry x="350" y="400" width="120" height="60" as="geometry"/>
                </mxCell>
            </root>
        </mxGraphModel>
    </diagram>
    <diagram id="9dw4XnZY393oUbKLjCTQ" name="UI">
        <mxGraphModel dx="832" dy="568" grid="1" gridSize="10" guides="1" tooltips="1" connect="1" arrows="1" fold="1" page="1" pageScale="1" pageWidth="827" pageHeight="583" math="0" shadow="0">
            <root>
                <mxCell id="0"/>
                <mxCell id="1" parent="0"/>
                <mxCell id="O-C42jUqE-xKP6D53A2M-1" value="" style="rounded=0;whiteSpace=wrap;html=1;" vertex="1" parent="1">
                    <mxGeometry x="20" y="20" width="770" height="470" as="geometry"/>
                </mxCell>
                <mxCell id="dVFYfLcC1d-V3M2Hwc3S-3" value="" style="edgeStyle=elbowEdgeStyle;html=1;" parent="1" source="dVFYfLcC1d-V3M2Hwc3S-1" target="dVFYfLcC1d-V3M2Hwc3S-2" edge="1">
                    <mxGeometry relative="1" as="geometry"/>
                </mxCell>
                <mxCell id="dVFYfLcC1d-V3M2Hwc3S-5" value="" style="edgeStyle=elbowEdgeStyle;html=1;" parent="1" source="dVFYfLcC1d-V3M2Hwc3S-1" target="dVFYfLcC1d-V3M2Hwc3S-4" edge="1">
                    <mxGeometry relative="1" as="geometry"/>
                </mxCell>
                <mxCell id="ZAw0t-z6TyOw4A4KSjs2-2" value="" style="edgeStyle=elbowEdgeStyle;html=1;" parent="1" source="dVFYfLcC1d-V3M2Hwc3S-1" target="ZAw0t-z6TyOw4A4KSjs2-1" edge="1">
                    <mxGeometry relative="1" as="geometry"/>
                </mxCell>
                <mxCell id="IaD9oKgPt_vkGfVqbsus-2" value="" style="edgeStyle=elbowEdgeStyle;html=1;" parent="1" source="dVFYfLcC1d-V3M2Hwc3S-1" target="IaD9oKgPt_vkGfVqbsus-1" edge="1">
                    <mxGeometry relative="1" as="geometry"/>
                </mxCell>
                <mxCell id="dVFYfLcC1d-V3M2Hwc3S-1" value="UI" style="rounded=0;whiteSpace=wrap;html=1;fillColor=#6a00ff;fontColor=#ffffff;strokeColor=#3700CC;" parent="1" vertex="1">
                    <mxGeometry x="350" y="260" width="120" height="60" as="geometry"/>
                </mxCell>
                <mxCell id="dVFYfLcC1d-V3M2Hwc3S-2" value="&lt;b&gt;ui_handle_t&lt;/b&gt;: Lưu trữ các hàm hiển thị giao diện&lt;br&gt;&lt;ul&gt;&lt;li style=&quot;&quot;&gt;window_main_launch(): Hàm hiển thị giao diện chính&lt;/li&gt;&lt;li style=&quot;&quot;&gt;window_standard_calculation_launch(): Hàm hiển thị giao diện tính toán&lt;/li&gt;&lt;li style=&quot;&quot;&gt;window_module_launch(): Hàm hiển thị giao diện tính module số phức&lt;/li&gt;&lt;li style=&quot;&quot;&gt;window_exit_launch(): Hàm hiển thị giao diện thoát phần mềm&lt;/li&gt;&lt;/ul&gt;" style="whiteSpace=wrap;html=1;rounded=0;align=left;fillColor=#d80073;fontColor=#ffffff;strokeColor=#A50040;" parent="1" vertex="1">
                    <mxGeometry x="190" y="50" width="440" height="130" as="geometry"/>
                </mxCell>
                <mxCell id="dVFYfLcC1d-V3M2Hwc3S-4" value="&lt;b&gt;ui_config_t&lt;/b&gt;&lt;br&gt;Lưu trữ các thiết lập về giao diện. Các thiết lập này sẽ được gán vào ui_handle_t" style="whiteSpace=wrap;html=1;rounded=0;fillColor=#d80073;fontColor=#ffffff;strokeColor=#A50040;" parent="1" vertex="1">
                    <mxGeometry x="550" y="260" width="210" height="60" as="geometry"/>
                </mxCell>
                <mxCell id="ZAw0t-z6TyOw4A4KSjs2-1" value="&lt;b&gt;Constructor()/Destructor()&lt;/b&gt;&lt;br&gt;Khởi tạo tài nguyên cho giao diện/Giải phóng tài nguyên cho giao diện" style="whiteSpace=wrap;html=1;rounded=0;" parent="1" vertex="1">
                    <mxGeometry x="50" y="260" width="220" height="60" as="geometry"/>
                </mxCell>
                <mxCell id="IaD9oKgPt_vkGfVqbsus-1" value="&lt;b&gt;WINDOW_Launch()&lt;/b&gt;&lt;br&gt;Hiển thị giao diện" style="whiteSpace=wrap;html=1;rounded=0;" parent="1" vertex="1">
                    <mxGeometry x="350" y="400" width="120" height="60" as="geometry"/>
                </mxCell>
            </root>
        </mxGraphModel>
    </diagram>
    <diagram id="ktUhMrcCI2KFpc4RWmYM" name="data_structure">
        <mxGraphModel dx="832" dy="568" grid="1" gridSize="10" guides="1" tooltips="1" connect="1" arrows="1" fold="1" page="1" pageScale="1" pageWidth="827" pageHeight="583" math="0" shadow="0">
            <root>
                <mxCell id="0"/>
                <mxCell id="1" parent="0"/>
                <mxCell id="ObOZaamjT6X67LEEAOYH-1" value="" style="rounded=0;whiteSpace=wrap;html=1;" vertex="1" parent="1">
                    <mxGeometry x="250" y="70" width="320" height="440" as="geometry"/>
                </mxCell>
                <mxCell id="5MiTO-JJRahIFYfznlFd-4" value="" style="edgeStyle=elbowEdgeStyle;html=1;" parent="1" source="5MiTO-JJRahIFYfznlFd-2" target="5MiTO-JJRahIFYfznlFd-3" edge="1">
                    <mxGeometry relative="1" as="geometry"/>
                </mxCell>
                <mxCell id="5MiTO-JJRahIFYfznlFd-8" value="" style="edgeStyle=elbowEdgeStyle;html=1;" parent="1" source="5MiTO-JJRahIFYfznlFd-2" target="5MiTO-JJRahIFYfznlFd-7" edge="1">
                    <mxGeometry relative="1" as="geometry"/>
                </mxCell>
                <mxCell id="5MiTO-JJRahIFYfznlFd-2" value="data structure" style="ellipse;whiteSpace=wrap;html=1;fillColor=#d80073;fontColor=#ffffff;strokeColor=#A50040;" parent="1" vertex="1">
                    <mxGeometry x="350" y="250" width="120" height="80" as="geometry"/>
                </mxCell>
                <mxCell id="5MiTO-JJRahIFYfznlFd-3" value="&lt;b&gt;complex_t&lt;br&gt;&lt;/b&gt;Lưu phần thực, phần ảo số phức" style="whiteSpace=wrap;html=1;fillColor=#d80073;fontColor=#ffffff;strokeColor=#A50040;" parent="1" vertex="1">
                    <mxGeometry x="285" y="100" width="250" height="60" as="geometry"/>
                </mxCell>
                <mxCell id="5MiTO-JJRahIFYfznlFd-7" value="&lt;b&gt;math_operator_t&lt;br&gt;&lt;/b&gt;Lưu các phép toán có thể sử dụng" style="whiteSpace=wrap;html=1;fillColor=#d80073;fontColor=#ffffff;strokeColor=#A50040;" parent="1" vertex="1">
                    <mxGeometry x="312.5" y="420" width="195" height="60" as="geometry"/>
                </mxCell>
            </root>
        </mxGraphModel>
    </diagram>
    <diagram id="p522YWF_U7YoanBObc2V" name="EVENT_MANAGER">
        <mxGraphModel dx="1002" dy="568" grid="1" gridSize="10" guides="1" tooltips="1" connect="1" arrows="1" fold="1" page="1" pageScale="1" pageWidth="827" pageHeight="583" math="0" shadow="0">
            <root>
                <mxCell id="0"/>
                <mxCell id="1" parent="0"/>
                <mxCell id="POIYRxgw2zQM6FcizW9q-1" value="" style="rounded=0;whiteSpace=wrap;html=1;" parent="1" vertex="1">
                    <mxGeometry x="90" y="30" width="610" height="450" as="geometry"/>
                </mxCell>
                <mxCell id="tv7uCsEJdiv_szSQi0QX-8" value="" style="edgeStyle=elbowEdgeStyle;html=1;" parent="1" source="tv7uCsEJdiv_szSQi0QX-1" target="tv7uCsEJdiv_szSQi0QX-7" edge="1">
                    <mxGeometry relative="1" as="geometry"/>
                </mxCell>
                <mxCell id="tv7uCsEJdiv_szSQi0QX-10" value="" style="edgeStyle=elbowEdgeStyle;html=1;" parent="1" source="tv7uCsEJdiv_szSQi0QX-1" target="tv7uCsEJdiv_szSQi0QX-9" edge="1">
                    <mxGeometry relative="1" as="geometry"/>
                </mxCell>
                <mxCell id="tv7uCsEJdiv_szSQi0QX-12" value="" style="edgeStyle=elbowEdgeStyle;html=1;" parent="1" source="tv7uCsEJdiv_szSQi0QX-1" target="tv7uCsEJdiv_szSQi0QX-11" edge="1">
                    <mxGeometry relative="1" as="geometry"/>
                </mxCell>
                <mxCell id="tv7uCsEJdiv_szSQi0QX-14" value="" style="edgeStyle=elbowEdgeStyle;html=1;" parent="1" source="tv7uCsEJdiv_szSQi0QX-1" target="tv7uCsEJdiv_szSQi0QX-13" edge="1">
                    <mxGeometry relative="1" as="geometry"/>
                </mxCell>
                <mxCell id="tv7uCsEJdiv_szSQi0QX-1" value="EVENT_MANAGER" style="rounded=0;whiteSpace=wrap;html=1;fillColor=#6a00ff;fontColor=#ffffff;strokeColor=#3700CC;" parent="1" vertex="1">
                    <mxGeometry x="350" y="260" width="120" height="60" as="geometry"/>
                </mxCell>
                <mxCell id="tv7uCsEJdiv_szSQi0QX-7" value="&lt;b&gt;event_manager_event_t&lt;/b&gt;: Bộ lưu trữ các tín hiệu hiển thị giao diện&lt;br style=&quot;&quot;&gt;&lt;ul style=&quot;&quot;&gt;&lt;li&gt;signal_main_window: tín hiệu hiển thị Main Window&lt;/li&gt;&lt;li&gt;signal_standard_calculation_window: tín hiệu hiển thị giao diện tính toán&lt;/li&gt;&lt;li&gt;signal_module_window: tín hiệu hiển thị giao diện tính module số phức&lt;/li&gt;&lt;li&gt;signal_exit_window: tín hiệu hiển thị giao diện thoát phần mềm&lt;/li&gt;&lt;/ul&gt;" style="whiteSpace=wrap;html=1;rounded=0;align=left;fillColor=#d80073;strokeColor=#A50040;fontColor=#ffffff;" parent="1" vertex="1">
                    <mxGeometry x="195.38" y="60" width="429.25" height="140" as="geometry"/>
                </mxCell>
                <mxCell id="tv7uCsEJdiv_szSQi0QX-9" value="&lt;b&gt;Constructor()&lt;/b&gt;&lt;br&gt;Khởi tạo bộ lưu trữ tín hiệu" style="whiteSpace=wrap;html=1;rounded=0;" parent="1" vertex="1">
                    <mxGeometry x="120" y="260" width="160" height="60" as="geometry"/>
                </mxCell>
                <mxCell id="tv7uCsEJdiv_szSQi0QX-11" value="&lt;b&gt;Destructor()&lt;/b&gt;&lt;br&gt;Giải phóng tài nguyên bộ lưu trữ tín hiệu" style="whiteSpace=wrap;html=1;rounded=0;" parent="1" vertex="1">
                    <mxGeometry x="550" y="260" width="120" height="60" as="geometry"/>
                </mxCell>
                <mxCell id="tv7uCsEJdiv_szSQi0QX-13" value="&lt;b&gt;GetSignal() / TriggerSignal()&lt;/b&gt;&lt;br&gt;Nhận tín hiệu / Gửi tín hiệu hiển thị giao diện" style="whiteSpace=wrap;html=1;rounded=0;" parent="1" vertex="1">
                    <mxGeometry x="270" y="390" width="280" height="60" as="geometry"/>
                </mxCell>
            </root>
        </mxGraphModel>
    </diagram>
    <diagram id="eTnK_zqAZ12im2p3IfhX" name="[main.c] APP_MANAGER">
        <mxGraphModel dx="1002" dy="568" grid="1" gridSize="10" guides="1" tooltips="1" connect="1" arrows="1" fold="1" page="1" pageScale="1" pageWidth="827" pageHeight="583" math="0" shadow="0">
            <root>
                <mxCell id="0"/>
                <mxCell id="1" parent="0"/>
                <mxCell id="QS8y3k4BkLc77u1lKwLT-1" value="" style="rounded=0;whiteSpace=wrap;html=1;" parent="1" vertex="1">
                    <mxGeometry x="50" y="80" width="690" height="260" as="geometry"/>
                </mxCell>
                <mxCell id="TpJOcrWCi0Rgk4lM-Qd6-13" value="" style="edgeStyle=elbowEdgeStyle;html=1;" parent="1" source="TpJOcrWCi0Rgk4lM-Qd6-11" target="TpJOcrWCi0Rgk4lM-Qd6-12" edge="1">
                    <mxGeometry relative="1" as="geometry"/>
                </mxCell>
                <mxCell id="TpJOcrWCi0Rgk4lM-Qd6-15" value="" style="edgeStyle=elbowEdgeStyle;html=1;" parent="1" source="TpJOcrWCi0Rgk4lM-Qd6-11" target="TpJOcrWCi0Rgk4lM-Qd6-14" edge="1">
                    <mxGeometry relative="1" as="geometry"/>
                </mxCell>
                <mxCell id="TpJOcrWCi0Rgk4lM-Qd6-17" value="" style="edgeStyle=elbowEdgeStyle;html=1;" parent="1" source="TpJOcrWCi0Rgk4lM-Qd6-11" target="TpJOcrWCi0Rgk4lM-Qd6-16" edge="1">
                    <mxGeometry relative="1" as="geometry"/>
                </mxCell>
                <mxCell id="TpJOcrWCi0Rgk4lM-Qd6-11" value="Complex Calculator&lt;br&gt;(main)&lt;br&gt;&amp;amp;&lt;br&gt;APP_MANAGER" style="rounded=0;whiteSpace=wrap;html=1;fillColor=#6a00ff;fontColor=#ffffff;strokeColor=#3700CC;" parent="1" vertex="1">
                    <mxGeometry x="320" y="250" width="120" height="60" as="geometry"/>
                </mxCell>
                <mxCell id="TpJOcrWCi0Rgk4lM-Qd6-12" value="&lt;b&gt;APP_MANAGER_Init()&lt;/b&gt;&lt;br&gt;Khởi tạo tài nguyên phần mềm (bao gồm UI, Event) và phát tín hiệu event hiển thị MainWindow" style="whiteSpace=wrap;html=1;rounded=0;" parent="1" vertex="1">
                    <mxGeometry x="230" y="110" width="300" height="60" as="geometry"/>
                </mxCell>
                <mxCell id="TpJOcrWCi0Rgk4lM-Qd6-14" value="&lt;b&gt;APP_MANAGER_Launch()&lt;/b&gt;&lt;br&gt;Nhận các tín hiệu và khởi chạy event (sự kiện) tương ứng" style="whiteSpace=wrap;html=1;rounded=0;" parent="1" vertex="1">
                    <mxGeometry x="520" y="250" width="190" height="60" as="geometry"/>
                </mxCell>
                <mxCell id="TpJOcrWCi0Rgk4lM-Qd6-16" value="&lt;b&gt;APP_MANAGER_Exit()&lt;/b&gt;&lt;br&gt;Giải phóng tài nguyên và thoát ứng dụng" style="whiteSpace=wrap;html=1;rounded=0;" parent="1" vertex="1">
                    <mxGeometry x="80" y="250" width="160" height="60" as="geometry"/>
                </mxCell>
            </root>
        </mxGraphModel>
    </diagram>
    <diagram id="QDg5m4CTr1rIaT7w4Yeo" name="BFD">
        <mxGraphModel dx="1002" dy="568" grid="1" gridSize="10" guides="1" tooltips="1" connect="1" arrows="1" fold="1" page="1" pageScale="1" pageWidth="827" pageHeight="583" background="#FFFFFF" math="0" shadow="0">
            <root>
                <mxCell id="0"/>
                <mxCell id="1" parent="0"/>
                <mxCell id="10" value="" style="rounded=0;whiteSpace=wrap;html=1;" parent="1" vertex="1">
                    <mxGeometry x="110" y="80" width="610" height="310" as="geometry"/>
                </mxCell>
                <mxCell id="4" value="" style="edgeStyle=orthogonalEdgeStyle;html=1;" parent="1" source="2" target="3" edge="1">
                    <mxGeometry relative="1" as="geometry"/>
                </mxCell>
                <mxCell id="6" value="" style="edgeStyle=elbowEdgeStyle;html=1;" parent="1" source="2" target="5" edge="1">
                    <mxGeometry relative="1" as="geometry"/>
                </mxCell>
                <mxCell id="7" value="" style="edgeStyle=elbowEdgeStyle;html=1;" parent="1" source="2" target="5" edge="1">
                    <mxGeometry relative="1" as="geometry"/>
                </mxCell>
                <mxCell id="9" value="" style="edgeStyle=elbowEdgeStyle;html=1;" parent="1" source="2" target="8" edge="1">
                    <mxGeometry relative="1" as="geometry">
                        <Array as="points">
                            <mxPoint x="609" y="270"/>
                        </Array>
                    </mxGeometry>
                </mxCell>
                <mxCell id="2" value="0. Complex Calculator" style="rounded=0;whiteSpace=wrap;html=1;" parent="1" vertex="1">
                    <mxGeometry x="329" y="180" width="160" height="60" as="geometry"/>
                </mxCell>
                <mxCell id="3" value="1. Standard Calculation" style="whiteSpace=wrap;html=1;rounded=0;" parent="1" vertex="1">
                    <mxGeometry x="139" y="300" width="150" height="60" as="geometry"/>
                </mxCell>
                <mxCell id="5" value="2. Module" style="rounded=0;whiteSpace=wrap;html=1;" parent="1" vertex="1">
                    <mxGeometry x="329" y="300" width="160" height="60" as="geometry"/>
                </mxCell>
                <mxCell id="8" value="3. Exit" style="rounded=0;whiteSpace=wrap;html=1;" parent="1" vertex="1">
                    <mxGeometry x="529" y="300" width="160" height="60" as="geometry"/>
                </mxCell>
                <mxCell id="I0U2RYk23hjiWyqcwub2-9" value="&lt;font style=&quot;font-size: 22px;&quot;&gt;&lt;b&gt;BIỂU ĐỒ CHỨC NĂNG CỦA &lt;br&gt;COMPLEX CALCULATOR&lt;/b&gt;&lt;/font&gt;" style="text;html=1;strokeColor=none;fillColor=none;align=center;verticalAlign=middle;whiteSpace=wrap;rounded=0;" parent="1" vertex="1">
                    <mxGeometry x="204" y="120" width="410" height="30" as="geometry"/>
                </mxCell>
            </root>
        </mxGraphModel>
    </diagram>
</mxfile>